<svg aria-hidden="true" style="position: absolute; width: 0; height: 0; overflow: hidden;" version="1.1" xmlns="http://www.w3.org/2000/svg" xmlns:xlink="http://www.w3.org/1999/xlink">
<defs>
<symbol id="icon-shopping-cart" viewBox="0 0 32 32">
<path d="M4.8 1.6c-0.424 0-0.831 0.169-1.131 0.469s-0.469 0.707-0.469 1.131c0 0.424 0.169 0.831 0.469 1.131s0.707 0.469 1.131 0.469h1.952l0.488 1.955c0.005 0.023 0.010 0.045 0.016 0.067l2.173 8.688-1.429 1.427c-2.016 2.016-0.589 5.462 2.262 5.462h13.737c0.424 0 0.831-0.169 1.131-0.469s0.469-0.707 0.469-1.131-0.169-0.831-0.469-1.131c-0.3-0.3-0.707-0.469-1.131-0.469h-13.738l1.6-1.6h10.537c0.297-0 0.588-0.083 0.841-0.239s0.457-0.38 0.59-0.646l4.8-9.6c0.122-0.244 0.18-0.515 0.167-0.787s-0.094-0.537-0.237-0.769c-0.143-0.232-0.343-0.423-0.581-0.556s-0.506-0.203-0.779-0.203h-17.152l-0.496-1.989c-0.087-0.346-0.286-0.653-0.568-0.873s-0.628-0.339-0.984-0.339h-3.2zM25.6 26.4c0 0.637-0.253 1.247-0.703 1.697s-1.060 0.703-1.697 0.703c-0.636 0-1.247-0.253-1.697-0.703s-0.703-1.060-0.703-1.697c0-0.636 0.253-1.247 0.703-1.697s1.060-0.703 1.697-0.703c0.637 0 1.247 0.253 1.697 0.703s0.703 1.061 0.703 1.697zM10.4 28.8c0.636 0 1.247-0.253 1.697-0.703s0.703-1.060 0.703-1.697c0-0.636-0.253-1.247-0.703-1.697s-1.061-0.703-1.697-0.703-1.247 0.253-1.697 0.703c-0.45 0.45-0.703 1.061-0.703 1.697s0.253 1.247 0.703 1.697 1.061 0.703 1.697 0.703z"></path>
</symbol>
<symbol id="icon-logo" viewBox="0 0 32 32">
<path d="M17.487 4.624c-0.463-0.704-1.086-1.289-1.817-1.707-2.011-1.153-4.601-0.951-6.992 0.388-4.439 2.487-7.345 7.161-7.345 12.695 0 7.387 5.347 13.351 12.329 14.48 0.763 0.123 1.543 0.187 2.337 0.187 1.938 0.007 3.857-0.372 5.647-1.113s3.414-1.832 4.779-3.207 2.443-3.008 3.17-4.804c0.728-1.796 1.092-3.718 1.070-5.656-0.031-2.576-1.064-5.737-2.697-8.264-1.627-2.517-4.128-4.811-7.236-4.781-1.517 0.003-2.553 0.837-3.245 1.784v-0.001zM26.36 10.15c-0.557-0.090-1.123-0.104-1.684-0.044l-1.547-2.6-2.291 1.36 1.189 2c-0.498 0.234-0.973 0.513-1.42 0.833-0.008-0.026-0.016-0.052-0.024-0.077-0.356-1.080-1.044-1.967-1.961-2.848l0.005-0.027c0.092-0.431 0.239-0.987 0.459-1.527 0.497-1.221 1.075-1.716 1.653-1.716h0.015c1.721-0.019 3.515 1.303 4.975 3.561 0.227 0.351 0.437 0.712 0.632 1.083l-0.001 0.001zM18.145 14.146c-0.44 0.011-0.892 0.060-1.333 0.156-0.36-0.602-0.842-1.123-1.416-1.527-1.053-0.74-2.496-1.107-4.056-0.524-0.143-0.082-0.287-0.163-0.432-0.241l4.311-4.225-1.867-1.904-5.113 5.012c-1.080-0.313-2.089-0.425-2.996-0.3 1.043-2.094 2.696-3.824 4.74-4.963 1.819-1.019 3.383-0.963 4.361-0.401 0.933 0.535 1.708 1.748 1.513 3.916l-0.060 0.671 0.504 0.447c1.096 0.969 1.552 1.596 1.749 2.195 0.139 0.42 0.184 0.928 0.095 1.689zM14.399 15.486c-1.139 0.953-1.903 2.291-2.347 3.736l-3.965-4.353-1.972 1.797 5.451 5.984c-0.007 1.589 0.197 3.216 0.493 4.687-2.36-0.81-4.407-2.34-5.852-4.373s-2.218-4.469-2.208-6.964c0-1.387 0.385-2.143 0.839-2.473 0.428-0.315 1.368-0.572 3.293 0.139 0.696 0.257 1.501 0.652 2.423 1.225l0.669 0.416 0.688-0.387c0.831-0.467 1.465-0.301 1.952 0.040 0.213 0.149 0.396 0.336 0.536 0.527zM16.752 27.976l9.723-10.716-1.975-1.792-3.909 4.308 0.009-1.352-2.667-0.019-0.031 4.333-3.311 3.649c-0.251-1.361-0.4-2.824-0.352-4.196 0.085-2.34 1.020-4.263 2.403-5.024 0.573-0.316 1.585-0.44 2.385-0.299l1.187 0.207 0.327-1.159c0.171-0.604 0.623-1.251 1.329-1.827 0.717-0.579 1.551-0.996 2.445-1.221 1.068-0.261 1.979-0.125 2.579 0.288 0.524 0.36 1.051 1.096 1.1 2.605v0.024l0.004 0.213c0.013 3.056-1.145 6.001-3.237 8.229s-4.958 3.569-8.009 3.747z"></path>
</symbol>
<symbol id="icon-search" viewBox="0 0 32 32">
<path d="M20.667 18.667h-1.053l-0.373-0.36c1.352-1.568 2.095-3.57 2.093-5.64 0-1.714-0.508-3.39-1.46-4.815s-2.306-2.536-3.89-3.192c-1.584-0.656-3.326-0.828-5.007-0.493s-3.225 1.16-4.437 2.372c-1.212 1.212-2.037 2.756-2.372 4.437s-0.163 3.424 0.493 5.007c0.656 1.584 1.767 2.937 3.192 3.89s3.101 1.46 4.815 1.46c2.147 0 4.12-0.787 5.64-2.093l0.36 0.373v1.053l6.667 6.653 1.987-1.987-6.653-6.667zM12.667 18.667c-3.32 0-6-2.68-6-6s2.68-6 6-6c3.32 0 6 2.68 6 6s-2.68 6-6 6z"></path>
</symbol>
<symbol id="icon-chevron-down" viewBox="0 0 32 32">
<path stroke-linejoin="round" stroke-linecap="round" stroke-miterlimit="4" stroke-width="3.2" d="M8 12l8 8 8-8"></path>
</symbol>
<symbol id="icon-logo-text" viewBox="0 0 234 32">
<path d="M0 23.182c1.764-0.216 2.736-1.008 2.736-2.412v-14.652c0-1.404-0.972-2.232-2.736-2.412v-1.44h18.288c0.324 0 0.468 0.108 0.504 0.36 0.108 1.080 0.18 2.16 0.756 4.788h-0.9c-1.26-2.196-2.34-3.348-4.464-3.348h-3.060c-1.62 0-2.304 0.9-2.304 2.34v3.78c0 1.44 0.684 2.232 2.304 2.232h1.44c2.916 0 3.456-0.684 3.744-2.304h0.792v6.408h-0.792c-0.288-1.512-0.828-2.268-3.744-2.268h-1.44c-1.62 0-2.304 0.792-2.304 2.232v4.284c0 1.404 0.972 2.196 3.096 2.412v1.44h-11.916v-1.44z"></path>
<path d="M28.634 24.838c-4.428 0-8.928-2.664-8.928-8.496 0-5.796 4.5-8.28 8.82-8.28 4.464 0 8.928 2.664 8.928 8.496 0 5.796-4.464 8.28-8.82 8.28zM25.466 14.758c0 4.464 1.476 8.424 3.78 8.424 1.404 0 2.448-1.404 2.448-5.112 0-4.428-1.404-8.388-3.78-8.388-1.44 0-2.448 1.44-2.448 5.076z"></path>
<path d="M47.988 24.838c-4.428 0-8.928-2.664-8.928-8.496 0-5.796 4.5-8.28 8.82-8.28 4.464 0 8.928 2.664 8.928 8.496 0 5.796-4.464 8.28-8.82 8.28zM44.82 14.758c0 4.464 1.476 8.424 3.78 8.424 1.404 0 2.448-1.404 2.448-5.112 0-4.428-1.404-8.388-3.78-8.388-1.44 0-2.448 1.44-2.448 5.076z"></path>
<path d="M65.29 24.838c-3.384 0-6.876-2.772-6.876-8.1 0-5.724 3.924-8.676 7.74-8.676 3.96 0 5.004 3.096 5.004-0.54v-2.16c0-1.692-0.936-1.98-2.268-1.872v-1.404l5.868-0.972c1.224-0.18 1.8 0.36 1.8 1.44v18.396c0 1.188 0.468 1.98 1.512 1.548v0.792c-0.504 1.224-1.8 1.548-2.916 1.548-1.224 0-2.772-0.396-3.204-1.476-0.288-0.684-0.612-1.044-1.152-1.044-0.72 0-2.16 2.52-5.508 2.52zM64.21 14.866c0 3.564 1.584 7.056 3.888 7.056 1.404 0 3.060-1.008 3.060-4.032v-1.692c0-4.68-2.196-6.516-3.996-6.516-1.836 0-2.952 2.268-2.952 5.184z"></path>
<path d="M85.627 23.182c1.764-0.216 2.736-1.008 2.736-2.412v-14.616c0-1.44-0.972-2.268-2.736-2.448v-1.44h11.124c7.056 0 10.548 1.692 10.548 5.328 0 2.052-1.188 4.068-5.292 4.716 4.608 0.648 6.588 2.808 6.588 5.868 0 4.176-3.708 6.444-8.748 6.444-2.88 0-9-0.9-14.22 0v-1.44zM94.447 21.31c0 0.936 0.576 1.368 1.62 1.368h1.26c2.736 0 4.788-1.044 4.788-4.536 0-3.384-2.088-4.86-6.048-4.86-0.936 0-1.62 0.72-1.62 2.16v5.868zM94.447 9.394c0 1.44 0.684 2.16 2.304 2.16h0.936c2.484 0 3.132-1.944 3.132-3.6 0-2.52-1.368-3.924-3.708-3.924h-0.36c-1.62 0-2.304 0.756-2.304 2.196v3.168z"></path>
<path d="M119.147 24.838c-4.428 0-8.928-2.664-8.928-8.496 0-5.796 4.5-8.28 8.82-8.28 4.464 0 8.928 2.664 8.928 8.496 0 5.796-4.464 8.28-8.82 8.28zM115.979 14.758c0 4.464 1.476 8.424 3.78 8.424 1.404 0 2.448-1.404 2.448-5.112 0-4.428-1.404-8.388-3.78-8.388-1.44 0-2.448 1.44-2.448 5.076z"></path>
<path d="M135.792 24.838c-2.52 0-5.256-1.044-5.256-6.696v-5.724c0-1.656-0.936-1.944-2.268-1.908v-1.404l5.868-0.972c1.224-0.18 1.8 0.36 1.8 1.44v7.704c0 2.52 1.044 4.32 2.988 4.32 1.98 0 2.988-1.8 2.988-4.32v-4.86c0-1.656-0.936-1.944-2.268-1.908v-1.404l5.832-0.972c1.26-0.18 1.836 0.36 1.836 1.44v11.376c0 1.188 0.468 1.98 1.512 1.548v0.792c-0.504 1.224-1.8 1.548-3.024 1.548-2.592 0-3.312-1.62-3.492-2.412-0.108-0.504-0.396-0.756-0.648-0.756s-0.432 0.216-0.612 0.468c-1.008 1.368-2.412 2.7-5.256 2.7z"></path>
<path d="M157.26 24.802c-3.312 0-5.328-1.836-5.328-5.328v-7.884c0-1.26-0.288-1.512-1.116-1.512h-1.62v-1.152c2.988-0.684 4.428-2.052 5.652-4.032 0.288-0.468 0.54-0.612 1.008-0.612h0.648c0.54 0 0.864 0.324 0.864 0.864l-0.036 2.232c0 0.792 0.396 1.008 2.232 1.008h2.34v1.908l-2.34-0.144c-1.836-0.108-2.232 0.216-2.232 1.512v7.632c0 1.98 0.216 3.312 1.98 3.312 0.468 0 1.188-0.072 1.872-0.576 0.468 0.576 0.648 1.080 0.18 1.512-0.828 0.72-2.304 1.26-4.104 1.26z"></path>
<path d="M163.356 23.218c1.656-0.108 2.268-0.648 2.268-2.592v-8.244c0-1.692-0.936-1.98-2.232-1.872v-1.404l5.832-0.972c1.224-0.18 1.8 0.36 1.8 1.44v11.052c0 1.944 0.612 2.484 2.232 2.592v1.404h-9.9v-1.404zM164.76 3.598c0-1.728 1.44-3.060 3.132-3.060 1.656 0 3.060 1.332 3.060 3.060s-1.404 3.060-3.060 3.060c-1.692 0-3.132-1.332-3.132-3.060z"></path>
<path d="M184.007 30.094c2.052-0.144 2.664-0.684 2.664-2.484v-3.852c0-0.648-0.324-0.864-0.648-0.864-0.18 0-0.36 0.072-0.504 0.216-0.72 0.72-2.268 1.728-4.536 1.728-3.708 0-7.128-2.736-7.128-8.028 0-5.76 3.996-8.748 8.136-8.748 3.6 0 5.112 2.196 6.444 2.196 1.26 0 1.764-2.16 2.772-2.16 0.648 0 0.864 0.36 0.864 0.864v18.648c0 1.8 0.612 2.34 2.232 2.484v1.368h-10.296v-1.368zM179.651 14.83c0 3.564 1.512 7.092 4.032 7.092 1.368 0 2.952-1.008 2.988-5.040-0.036-5.4-2.268-7.2-4.068-7.2-1.944 0-2.952 2.268-2.952 5.148z"></path>
<path d="M201.292 24.838c-2.521 0-5.257-1.044-5.257-6.696v-5.724c0-1.656-0.936-1.944-2.268-1.908v-1.404l5.868-0.972c1.225-0.18 1.801 0.36 1.801 1.44v7.704c0 2.52 1.044 4.32 2.988 4.32 1.98 0 2.988-1.8 2.988-4.32v-4.86c0-1.656-0.936-1.944-2.268-1.908v-1.404l5.832-0.972c1.26-0.18 1.836 0.36 1.836 1.44v11.376c0 1.188 0.468 1.98 1.512 1.548v0.792c-0.504 1.224-1.8 1.548-3.024 1.548-2.592 0-3.312-1.62-3.492-2.412-0.108-0.504-0.396-0.756-0.648-0.756s-0.432 0.216-0.612 0.468c-1.008 1.368-2.412 2.7-5.256 2.7z"></path>
<path d="M224.726 24.838c-4.5 0-8.964-2.592-8.964-8.244 0-5.904 4.824-8.532 9.288-8.532 3.816 0 6.912 1.908 6.912 5.076 0 3.24-3.132 3.42-6.3 3.672l-2.808 0.216c-0.612 0.036-0.936 0.324-0.936 1.152 0 2.664 2.88 3.852 5.256 3.852 1.26 0 2.988-0.36 4.284-1.836l1.080 0.972c-0.684 1.404-3.6 3.672-7.812 3.672zM221.666 14.074c0 1.044 0.252 1.584 1.188 1.548l1.296-0.144c2.484-0.252 2.988-0.9 2.988-2.304 0-1.728-0.72-3.456-2.592-3.456-2.34 0-2.88 2.628-2.88 4.356z"></path>
</symbol>
<symbol id="icon-youtube" viewBox="0 0 32 32">
<path d="M24.241 6c-1.36-0.080-4.16-0.16-8.4-0.16h-0.56c-4.080 0-6.8 0.080-8.16 0.24-1.84 0.16-3.12 0.64-3.84 1.28-0.64 0.56-1.12 1.6-1.28 2.96-0.080 0.88-0.16 2.72-0.16 5.52v0.4c0 2.64 0.080 4.48 0.24 5.36 0.24 1.28 0.64 2.24 1.44 2.8 0.8 0.64 2.16 1.040 4.080 1.2 1.36 0.080 4.16 0.16 8.4 0.16h0.56c4.080 0 6.8-0.080 8.16-0.24 1.84-0.16 3.12-0.64 3.84-1.28 0.64-0.56 1.12-1.6 1.28-2.96 0.080-0.88 0.16-2.72 0.16-5.52v-0.4c0-2.64-0.080-4.48-0.24-5.36-0.24-1.28-0.64-2.24-1.44-2.8-0.8-0.64-2.16-1.040-4.080-1.2zM21.121 15.84l-8.8 5.28v-10.56l8.8 5.28z"></path>
</symbol>
<symbol id="icon-instagram" viewBox="0 0 32 32">
<path d="M28.718 10.756c-0.016-1.074-0.215-2.14-0.596-3.145-0.667-1.716-2.024-3.073-3.743-3.737-0.994-0.373-2.044-0.573-3.108-0.596-1.367-0.061-1.801-0.078-5.273-0.078s-3.916 0-5.274 0.078c-1.062 0.023-2.112 0.223-3.106 0.596-1.719 0.664-3.078 2.021-3.743 3.737-0.374 0.992-0.576 2.041-0.596 3.101-0.061 1.367-0.080 1.8-0.080 5.265s0 3.909 0.080 5.265c0.021 1.062 0.222 2.109 0.596 3.104 0.667 1.714 2.024 3.071 3.744 3.735 0.989 0.386 2.040 0.605 3.106 0.639 1.369 0.061 1.803 0.079 5.274 0.079s3.917 0 5.274-0.079c1.062-0.021 2.112-0.221 3.108-0.595 1.719-0.666 3.076-2.022 3.743-3.737 0.374-0.993 0.574-2.041 0.596-3.104 0.061-1.365 0.080-1.798 0.080-5.265-0.003-3.466-0.003-3.906-0.082-5.264zM15.991 22.531c-3.631 0-6.572-2.936-6.572-6.561s2.941-6.561 6.572-6.561c3.628 0 6.572 2.936 6.572 6.561s-2.944 6.561-6.572 6.561zM22.824 10.696c-0.849 0-1.532-0.684-1.532-1.53s0.684-1.53 1.532-1.53c0.846 0 1.531 0.684 1.531 1.53s-0.685 1.53-1.531 1.53z"></path>
<path d="M15.991 19.976c2.211 0 4.004-1.793 4.004-4.004s-1.793-4.004-4.004-4.004c-2.211 0-4.004 1.793-4.004 4.004s1.793 4.004 4.004 4.004z"></path>
</symbol>
<symbol id="icon-facebook" viewBox="0 0 32 32">
<path d="M19.519 4.64c0.24 0 0.48 0 0.96 0v3.6c-0.24 0-0.72 0-1.2 0s-0.96 0-1.2 0.24c-0.24 0.24-0.24 0.48-0.24 1.040 0 0.48 0 0.8 0 1.28h2.64v3.040h-2.64v13.2h-4.080v-13.28h-2.16v-3.040h2.16v-1.040c0-1.76 0.24-3.040 0.72-3.6 0.72-1.040 2.16-1.52 4.32-1.52 0.24 0.080 0.48 0.080 0.72 0.080z"></path>
</symbol>
<symbol id="icon-discount" viewBox="0 0 32 32">
<path d="M26.594 20.706l-0.225 0.61-4.155-1.531 0.225-0.61 0.343 0.126 0.004-0.012c-0.145-0.232-0.265-0.606-0.095-1.065 0.281-0.761 1.082-1.106 2.058-0.746s1.361 1.142 1.080 1.903c-0.17 0.459-0.492 0.67-0.776 0.744l-0.004 0.012 1.546 0.57zM23.151 18.513c-0.185 0.5 0.114 0.96 0.771 1.202 0.663 0.244 1.183 0.086 1.368-0.414 0.197-0.535-0.186-0.999-0.767-1.213s-1.174-0.109-1.372 0.425z"></path>
<path d="M24.8 22.319c0.106-0.145 0.316-0.222 0.496-0.090s0.165 0.351 0.059 0.496c-0.114 0.155-0.315 0.23-0.495 0.099s-0.174-0.35-0.060-0.504zM24.56 21.745l-0.385 0.524-2.555-1.867 0.385-0.524 2.555 1.867z"></path>
<path d="M21.641 23.067c-0.536 0.265-1.107 0.566-1.588-0.016-0.387-0.468-0.226-1.090 0.367-1.578 0.789-0.649 1.432-0.561 1.882-0.065l-0.488 0.401c-0.241-0.243-0.541-0.373-1.058 0.052-0.349 0.287-0.355 0.581-0.229 0.734 0.253 0.306 0.564 0.089 0.994-0.12 0.462-0.228 1.051-0.585 1.509-0.031 0.331 0.401 0.242 1.012-0.37 1.516-0.665 0.547-1.276 0.449-1.661 0.052l0.488-0.401c0.191 0.163 0.449 0.28 0.841-0.042 0.301-0.248 0.369-0.496 0.227-0.668-0.205-0.248-0.494-0.043-0.914 0.167z"></path>
<path d="M18.275 24.866c0.128 0.297 0.447 0.6 0.975 0.421 0.604-0.205 0.686-0.809 0.494-1.371s-0.62-0.993-1.23-0.786c-0.528 0.179-0.597 0.608-0.507 0.95l-0.616 0.209c-0.189-0.708 0.17-1.399 0.95-1.664 0.897-0.305 1.698 0.143 2.018 1.081s-0.040 1.78-0.932 2.082c-0.78 0.265-1.46-0.060-1.769-0.714l0.616-0.209z"></path>
<path d="M15.619 23.011c0.989 0.061 1.547 0.783 1.487 1.766s-0.701 1.633-1.69 1.572c-0.989-0.060-1.547-0.783-1.487-1.766s0.701-1.633 1.69-1.572zM15.587 23.543c-0.618-0.038-0.969 0.431-1.009 1.080-0.040 0.655 0.252 1.157 0.871 1.195s0.969-0.425 1.009-1.080c0.039-0.649-0.252-1.157-0.871-1.195z"></path>
<path d="M10.939 24.976l-0.585-0.284 1.385-2.846 0.585 0.284-0.179 0.368 0.011 0.005c0.259-0.15 0.663-0.229 1.153 0.009 0.529 0.257 0.798 0.766 0.481 1.418l-0.957 1.966-0.591-0.287 0.875-1.799c0.187-0.384 0.145-0.708-0.257-0.902-0.451-0.219-0.874-0.087-1.080 0.337l-0.843 1.732z"></path>
<path d="M8.097 22.732c-0.393-0.438-0.449-1.011 0.092-1.494l1.631-1.456 0.438 0.489-1.492 1.332c-0.319 0.285-0.402 0.6-0.105 0.932 0.335 0.374 0.776 0.411 1.127 0.098l1.437-1.283 0.434 0.484-2.361 2.108-0.434-0.484 0.305-0.272-0.008-0.009c-0.296 0.040-0.7-0.039-1.064-0.445z"></path>
<path d="M6.756 19.267l0.245 0.542 1.564-0.704c0.328-0.147 0.296-0.323 0.099-0.697l0.486-0.219c0.082 0.106 0.157 0.228 0.229 0.386 0.214 0.474 0.117 0.83-0.493 1.105l-1.615 0.727 0.189 0.418-0.486 0.219-0.189-0.418-0.909 0.409-0.271-0.598 0.909-0.409-0.245-0.542 0.486-0.219z"></path>
<path d="M4.865 12.756l0.141-0.635 4.323 0.962-0.141 0.635-0.357-0.079-0.003 0.012c0.175 0.21 0.344 0.565 0.237 1.043-0.176 0.792-0.924 1.241-1.939 1.015s-1.502-0.95-1.325-1.741c0.106-0.478 0.397-0.73 0.67-0.841l0.003-0.012-1.608-0.358zM8.57 14.468c0.116-0.52-0.242-0.936-0.925-1.088-0.689-0.153-1.184 0.073-1.3 0.593-0.124 0.556 0.318 0.965 0.923 1.1s1.178-0.049 1.302-0.605z"></path>
<path d="M6.422 10.917c-0.086 0.158-0.283 0.262-0.479 0.156s-0.211-0.326-0.125-0.483c0.092-0.169 0.281-0.27 0.477-0.164s0.219 0.323 0.127 0.492zM6.736 11.454l0.311-0.571 2.782 1.509-0.311 0.571-2.782-1.509z"></path>
<path d="M9.459 9.742c0.497-0.333 1.023-0.706 1.577-0.192 0.445 0.413 0.366 1.051-0.157 1.612-0.697 0.747-1.346 0.744-1.857 0.311l0.431-0.462c0.271 0.209 0.585 0.299 1.042-0.19 0.308-0.331 0.276-0.623 0.131-0.758-0.29-0.27-0.571-0.015-0.969 0.249-0.428 0.287-0.966 0.717-1.492 0.228-0.381-0.354-0.372-0.972 0.168-1.552 0.587-0.63 1.206-0.612 1.64-0.269l-0.431 0.462c-0.211-0.137-0.482-0.219-0.828 0.152-0.266 0.285-0.301 0.54-0.138 0.692 0.236 0.219 0.495-0.022 0.885-0.285z"></path>
<path d="M12.513 7.532c-0.167-0.277-0.524-0.534-1.023-0.285-0.571 0.285-0.57 0.894-0.303 1.425s0.749 0.9 1.326 0.612c0.499-0.249 0.509-0.684 0.373-1.010l0.582-0.291c0.283 0.675 0.021 1.409-0.716 1.777-0.848 0.423-1.702 0.088-2.146-0.797s-0.201-1.769 0.641-2.189c0.737-0.368 1.455-0.138 1.849 0.468l-0.582 0.291z"></path>
<path d="M15.392 8.999c-0.988 0.072-1.638-0.57-1.71-1.552s0.476-1.711 1.465-1.783c0.988-0.072 1.638 0.57 1.711 1.552s-0.476 1.711-1.465 1.783zM15.353 8.468c0.618-0.045 0.903-0.556 0.855-1.205-0.048-0.655-0.405-1.113-1.023-1.068s-0.903 0.55-0.855 1.205c0.048 0.649 0.405 1.113 1.023 1.068z"></path>
<path d="M19.793 6.425l0.618 0.204-0.993 3.005-0.618-0.204 0.128-0.388-0.012-0.004c-0.237 0.183-0.626 0.315-1.144 0.144-0.559-0.184-0.893-0.653-0.666-1.341l0.686-2.076 0.623 0.206-0.628 1.899c-0.134 0.406-0.049 0.721 0.374 0.861 0.476 0.157 0.878-0.030 1.025-0.477l0.605-1.829z"></path>
<path d="M22.913 8.262c0.447 0.383 0.577 0.943 0.105 1.493l-1.426 1.658-0.498-0.427 1.304-1.517c0.279-0.324 0.32-0.647-0.019-0.938-0.381-0.326-0.823-0.306-1.13 0.051l-1.256 1.46-0.494-0.423 2.064-2.4 0.494 0.423-0.267 0.31 0.009 0.008c0.289-0.079 0.699-0.053 1.113 0.301z"></path>
<path d="M24.694 11.493l-0.316-0.504-1.455 0.908c-0.305 0.19-0.249 0.36-0.005 0.704l-0.452 0.282c-0.095-0.094-0.187-0.205-0.279-0.352-0.276-0.441-0.228-0.807 0.34-1.161l1.503-0.938-0.243-0.388 0.452-0.282 0.243 0.388 0.846-0.528 0.349 0.556-0.846 0.528 0.316 0.504-0.452 0.282z"></path>
<path d="M17.506 14.796c-2.71 0.602-3.342 2.46-3.968 4.016l0.569 0.199 0.286-0.692c0.145 0.051 0.295 0.090 0.403 0.090 3.312 0 4.215-5.118 4.215-5.118-0.301 0.602-2.409 0.677-3.914 0.978s-2.107 1.581-2.107 2.183 0.527 1.129 0.527 1.129c0.978-2.785 3.989-2.785 3.989-2.785z"></path>
</symbol>
<symbol id="icon-close" viewBox="0 0 32 32">
<path d="M25 9.093l-2.093-2.093-6.907 6.907-6.907-6.907-2.093 2.093 6.907 6.907-6.907 6.907 2.093 2.093 6.907-6.907 6.907 6.907 2.093-2.093-6.907-6.907 6.907-6.907z"></path>
</symbol>
</defs>
</svg>
