<svg aria-hidden="true" style="position: absolute; width: 0; height: 0; overflow: hidden;" version="1.1" xmlns="http://www.w3.org/2000/svg" xmlns:xlink="http://www.w3.org/1999/xlink">
<defs>
<symbol id="icon-shopping-cart" viewBox="0 0 32 32">
<path fill="#e8e8e2" style="fill: var(--color1, #e8e8e2)" d="M4.8 1.6c-0.424 0-0.831 0.169-1.131 0.469s-0.469 0.707-0.469 1.131c0 0.424 0.169 0.831 0.469 1.131s0.707 0.469 1.131 0.469h1.952l0.488 1.955c0.005 0.023 0.010 0.045 0.016 0.067l2.173 8.688-1.429 1.427c-2.016 2.016-0.589 5.462 2.262 5.462h13.737c0.424 0 0.831-0.169 1.131-0.469s0.469-0.707 0.469-1.131-0.169-0.831-0.469-1.131c-0.3-0.3-0.707-0.469-1.131-0.469h-13.738l1.6-1.6h10.537c0.297-0 0.588-0.083 0.841-0.239s0.457-0.38 0.59-0.646l4.8-9.6c0.122-0.244 0.18-0.515 0.167-0.787s-0.094-0.537-0.237-0.769c-0.143-0.232-0.343-0.423-0.581-0.556s-0.506-0.203-0.779-0.203h-17.152l-0.496-1.989c-0.087-0.346-0.286-0.653-0.568-0.873s-0.628-0.339-0.984-0.339h-3.2zM25.6 26.4c0 0.637-0.253 1.247-0.703 1.697s-1.060 0.703-1.697 0.703c-0.636 0-1.247-0.253-1.697-0.703s-0.703-1.060-0.703-1.697c0-0.636 0.253-1.247 0.703-1.697s1.060-0.703 1.697-0.703c0.637 0 1.247 0.253 1.697 0.703s0.703 1.061 0.703 1.697zM10.4 28.8c0.636 0 1.247-0.253 1.697-0.703s0.703-1.060 0.703-1.697c0-0.636-0.253-1.247-0.703-1.697s-1.061-0.703-1.697-0.703-1.247 0.253-1.697 0.703c-0.45 0.45-0.703 1.061-0.703 1.697s0.253 1.247 0.703 1.697 1.061 0.703 1.697 0.703z"></path>
</symbol>
<symbol id="icon-logo" viewBox="0 0 32 32">
<path d="M17.487 4.624c-0.463-0.704-1.086-1.289-1.817-1.707-2.011-1.153-4.601-0.951-6.992 0.388-4.439 2.487-7.345 7.161-7.345 12.695 0 7.387 5.347 13.351 12.329 14.48 0.763 0.123 1.543 0.187 2.337 0.187 1.938 0.007 3.857-0.372 5.647-1.113s3.414-1.832 4.779-3.207 2.443-3.008 3.17-4.804c0.728-1.796 1.092-3.718 1.070-5.656-0.031-2.576-1.064-5.737-2.697-8.264-1.627-2.517-4.128-4.811-7.236-4.781-1.517 0.003-2.553 0.837-3.245 1.784v-0.001zM26.36 10.15c-0.557-0.090-1.123-0.104-1.684-0.044l-1.547-2.6-2.291 1.36 1.189 2c-0.498 0.234-0.973 0.513-1.42 0.833-0.008-0.026-0.016-0.052-0.024-0.077-0.356-1.080-1.044-1.967-1.961-2.848l0.005-0.027c0.092-0.431 0.239-0.987 0.459-1.527 0.497-1.221 1.075-1.716 1.653-1.716h0.015c1.721-0.019 3.515 1.303 4.975 3.561 0.227 0.351 0.437 0.712 0.632 1.083l-0.001 0.001zM18.145 14.146c-0.44 0.011-0.892 0.060-1.333 0.156-0.36-0.602-0.842-1.123-1.416-1.527-1.053-0.74-2.496-1.107-4.056-0.524-0.143-0.082-0.287-0.163-0.432-0.241l4.311-4.225-1.867-1.904-5.113 5.012c-1.080-0.313-2.089-0.425-2.996-0.3 1.043-2.094 2.696-3.824 4.74-4.963 1.819-1.019 3.383-0.963 4.361-0.401 0.933 0.535 1.708 1.748 1.513 3.916l-0.060 0.671 0.504 0.447c1.096 0.969 1.552 1.596 1.749 2.195 0.139 0.42 0.184 0.928 0.095 1.689zM14.399 15.486c-1.139 0.953-1.903 2.291-2.347 3.736l-3.965-4.353-1.972 1.797 5.451 5.984c-0.007 1.589 0.197 3.216 0.493 4.687-2.36-0.81-4.407-2.34-5.852-4.373s-2.218-4.469-2.208-6.964c0-1.387 0.385-2.143 0.839-2.473 0.428-0.315 1.368-0.572 3.293 0.139 0.696 0.257 1.501 0.652 2.423 1.225l0.669 0.416 0.688-0.387c0.831-0.467 1.465-0.301 1.952 0.040 0.213 0.149 0.396 0.336 0.536 0.527zM16.752 27.976l9.723-10.716-1.975-1.792-3.909 4.308 0.009-1.352-2.667-0.019-0.031 4.333-3.311 3.649c-0.251-1.361-0.4-2.824-0.352-4.196 0.085-2.34 1.020-4.263 2.403-5.024 0.573-0.316 1.585-0.44 2.385-0.299l1.187 0.207 0.327-1.159c0.171-0.604 0.623-1.251 1.329-1.827 0.717-0.579 1.551-0.996 2.445-1.221 1.068-0.261 1.979-0.125 2.579 0.288 0.524 0.36 1.051 1.096 1.1 2.605v0.024l0.004 0.213c0.013 3.056-1.145 6.001-3.237 8.229s-4.958 3.569-8.009 3.747z"></path>
</symbol>
<symbol id="icon-chevron-down" viewBox="0 0 32 32">
<path stroke-linejoin="round" stroke-linecap="round" stroke-miterlimit="4" stroke-width="3.2" d="M8 12l8 8 8-8"></path>
</symbol>
<symbol id="icon-search" viewBox="0 0 32 32">
<path d="M20.667 18.667h-1.053l-0.373-0.36c1.352-1.568 2.095-3.57 2.093-5.64 0-1.714-0.508-3.39-1.46-4.815s-2.306-2.536-3.89-3.192c-1.584-0.656-3.326-0.828-5.007-0.493s-3.225 1.16-4.437 2.372c-1.212 1.212-2.037 2.756-2.372 4.437s-0.163 3.424 0.493 5.007c0.656 1.584 1.767 2.937 3.192 3.89s3.101 1.46 4.815 1.46c2.147 0 4.12-0.787 5.64-2.093l0.36 0.373v1.053l6.667 6.653 1.987-1.987-6.653-6.667zM12.667 18.667c-3.32 0-6-2.68-6-6s2.68-6 6-6c3.32 0 6 2.68 6 6s-2.68 6-6 6z"></path>
</symbol>
<symbol id="icon-organic" viewBox="0 0 32 32">
<path d="M25.905 17.123c0.114-0.893 0.803-1.355 1.69-1.242s1.438 0.734 1.323 1.627c-0.114 0.893-0.803 1.355-1.69 1.242s-1.438-0.734-1.323-1.627zM26.385 17.184c-0.071 0.558 0.332 0.905 0.918 0.98 0.592 0.076 1.064-0.159 1.135-0.717s-0.327-0.904-0.918-0.98c-0.586-0.075-1.064 0.159-1.135 0.717z"></path>
<path d="M28.062 20.787c-0.034 0.095-0.064 0.163-0.102 0.238l-0.525-0.186 0.004-0.011c0.28-0.504 0.071-1.061-0.507-1.266l-1.384-0.49 0.197-0.557 2.71 0.959-0.197 0.557-0.509-0.18-0.004 0.011c0.289 0.263 0.443 0.569 0.317 0.924z"></path>
<path d="M26.615 23.318l-0.312 0.502-2.275-1.413c-0.703-0.436-0.749-1.055-0.319-1.748 0.436-0.703 1.045-0.861 1.488-0.659l-0.315 0.507c-0.245-0.086-0.514-0.015-0.76 0.382-0.261 0.421-0.204 0.754 0.236 1.027l0.296 0.184 0.006-0.010c-0.102-0.242-0.144-0.579 0.097-0.966 0.38-0.612 1.090-0.807 1.86-0.329 0.774 0.481 0.91 1.201 0.53 1.813-0.24 0.387-0.561 0.499-0.814 0.521l-0.006 0.010 0.287 0.178zM25.109 21.476c-0.252 0.406-0.136 0.816 0.38 1.137s0.935 0.243 1.188-0.163c0.273-0.44 0.083-0.869-0.371-1.151-0.449-0.279-0.923-0.262-1.196 0.178z"></path>
<path d="M24.021 25.083c0.143 0.151 0.342 0.18 0.627-0.091 0.343-0.326 0.368-0.552 0.133-0.84l0.416-0.395c0.359 0.419 0.401 0.977-0.227 1.574-0.461 0.438-0.97 0.588-1.497 0.034l-0.942-0.991c-0.14-0.147-0.246-0.193-0.398-0.018l-0.194-0.204c0.063-0.13 0.125-0.204 0.206-0.281 0.228-0.217 0.412-0.236 0.646-0.071l0.008-0.008c-0.044-0.308 0.072-0.659 0.395-0.965 0.424-0.403 0.918-0.406 1.251-0.056 0.434 0.457 0.231 0.921-0.194 1.519-0.264 0.367-0.421 0.594-0.231 0.794zM23.423 23.253c-0.355 0.337-0.433 0.745-0.111 1.084l0.298 0.314c0.023-0.115 0.144-0.323 0.305-0.553 0.281-0.415 0.339-0.664 0.138-0.876-0.182-0.192-0.397-0.189-0.63 0.032z"></path>
<path d="M21.959 27.496c-0.469 0.256-0.988 0.187-1.304-0.39l-0.953-1.743 0.523-0.286 0.872 1.595c0.186 0.341 0.448 0.48 0.804 0.285 0.4-0.219 0.524-0.601 0.319-0.976l-0.84-1.535 0.518-0.283 1.379 2.523-0.518 0.283-0.178-0.326-0.010 0.005c-0.025 0.27-0.179 0.611-0.613 0.848z"></path>
<path d="M20.145 28.701c0.155-0.050 0.35 0.005 0.413 0.197s-0.065 0.346-0.22 0.397c-0.166 0.054-0.354 0.003-0.417-0.19s0.058-0.35 0.224-0.404zM20.274 28.151l-0.562 0.182-0.887-2.735 0.562-0.182 0.888 2.735z"></path>
<path d="M16.736 27.841c0.059 0.287 0.289 0.615 0.791 0.551 0.575-0.073 0.758-0.596 0.689-1.132s-0.371-0.996-0.952-0.922c-0.502 0.064-0.642 0.434-0.624 0.755l-0.586 0.075c-0.040-0.664 0.406-1.215 1.148-1.31 0.854-0.109 1.485 0.434 1.599 1.327s-0.36 1.578-1.208 1.686c-0.742 0.095-1.288-0.317-1.444-0.956l0.586-0.075z"></path>
<path d="M11.036 28.715c0.36 0.13 0.512 0.136 0.609-0.175l0.094-0.301-0.505-0.158 0.144-0.462 0.505 0.158 0.712-2.283 0.569 0.178-0.712 2.283 0.392 0.122-0.144 0.462-0.392-0.122-0.109 0.349c-0.181 0.58-0.492 0.707-0.943 0.566-0.14-0.044-0.258-0.098-0.364-0.155l0.144-0.462z"></path>
<path d="M10.993 24.692c0.788 0.435 0.964 1.245 0.532 2.029s-1.212 1.067-2 0.632c-0.788-0.435-0.964-1.245-0.532-2.029s1.212-1.067 2-0.632zM10.759 25.116c-0.493-0.272-0.964-0.024-1.249 0.493-0.288 0.522-0.244 1.048 0.249 1.32s0.961 0.029 1.249-0.493c0.285-0.517 0.244-1.048-0.249-1.32z"></path>
<path d="M8.902 23.159c0.653 0.62 0.618 1.449 0.002 2.097s-1.442 0.725-2.095 0.105c-0.653-0.62-0.618-1.449-0.002-2.097s1.442-0.725 2.095-0.105zM8.569 23.509c-0.408-0.388-0.926-0.267-1.333 0.161-0.411 0.432-0.501 0.952-0.093 1.34s0.922 0.271 1.333-0.161c0.407-0.428 0.501-0.952 0.093-1.34z"></path>
<path d="M3.389 22.669l-0.304-0.506 3.449-2.072 0.304 0.506-0.285 0.171 0.006 0.010c0.247 0.029 0.58 0.157 0.809 0.538 0.38 0.632 0.169 1.395-0.642 1.882s-1.583 0.314-1.963-0.317c-0.229-0.381-0.195-0.729-0.085-0.973l-0.006-0.010-1.283 0.771zM6.901 21.478c-0.249-0.415-0.745-0.465-1.29-0.137-0.55 0.33-0.734 0.789-0.485 1.204 0.267 0.444 0.814 0.437 1.296 0.147s0.745-0.769 0.479-1.213z"></path>
<path d="M5.768 16.237c0.035 0.9-0.568 1.469-1.462 1.503s-1.539-0.487-1.574-1.386 0.568-1.469 1.462-1.504c0.894-0.035 1.539 0.487 1.574 1.386zM5.284 16.255c-0.022-0.562-0.477-0.837-1.067-0.815-0.596 0.023-1.023 0.332-1.002 0.895s0.472 0.838 1.067 0.815c0.59-0.023 1.023-0.332 1.002-0.895z"></path>
<path d="M3.042 12.923c0.018-0.1 0.036-0.171 0.062-0.252l0.548 0.098-0.002 0.011c-0.194 0.543 0.102 1.059 0.706 1.167l1.446 0.259-0.104 0.582-2.83-0.506 0.104-0.582 0.532 0.095 0.002-0.011c-0.328-0.213-0.53-0.489-0.463-0.86z"></path>
<path d="M4.051 10.203l0.226-0.546 2.474 1.025c0.764 0.316 0.91 0.919 0.598 1.673-0.316 0.764-0.891 1.019-1.362 0.891l0.228-0.551c0.255 0.045 0.51-0.069 0.688-0.5 0.189-0.457 0.078-0.777-0.4-0.976l-0.322-0.133-0.004 0.010c0.139 0.222 0.236 0.548 0.061 0.969-0.276 0.665-0.945 0.973-1.782 0.626-0.842-0.349-1.093-1.037-0.817-1.703 0.174-0.421 0.473-0.584 0.718-0.646l0.004-0.010-0.312-0.129zM5.835 11.777c0.183-0.442 0.002-0.828-0.56-1.060s-0.962-0.088-1.145 0.354c-0.198 0.478 0.059 0.871 0.553 1.076 0.489 0.202 0.954 0.109 1.152-0.369z"></path>
<path d="M6.325 8.036c-0.166-0.126-0.366-0.123-0.605 0.19-0.286 0.376-0.276 0.603 0.003 0.851l-0.348 0.457c-0.422-0.356-0.552-0.901-0.027-1.59 0.385-0.506 0.864-0.735 1.473-0.272l1.088 0.828c0.161 0.123 0.273 0.152 0.395-0.046l0.224 0.17c-0.042 0.138-0.091 0.221-0.159 0.311-0.191 0.251-0.369 0.299-0.627 0.173l-0.007 0.009c0.092 0.297 0.033 0.662-0.236 1.016-0.354 0.466-0.841 0.548-1.226 0.254-0.501-0.382-0.375-0.873-0.051-1.531 0.202-0.405 0.321-0.654 0.102-0.821zM7.207 9.747c0.297-0.389 0.309-0.805-0.063-1.088l-0.345-0.262c-0.004 0.117-0.090 0.341-0.213 0.595-0.211 0.454-0.229 0.71 0.004 0.887 0.21 0.16 0.422 0.123 0.616-0.132z"></path>
<path d="M7.935 5.343c0.42-0.33 0.943-0.347 1.35 0.171l1.226 1.562-0.469 0.368-1.122-1.43c-0.24-0.305-0.521-0.399-0.84-0.149-0.359 0.281-0.418 0.679-0.154 1.015l1.080 1.377-0.465 0.365-1.775-2.262 0.465-0.365 0.229 0.292 0.009-0.007c-0.019-0.271 0.076-0.632 0.466-0.938z"></path>
<path d="M9.554 3.834c-0.145 0.075-0.347 0.053-0.44-0.127s0.007-0.352 0.152-0.427c0.155-0.080 0.349-0.060 0.442 0.119s0 0.355-0.155 0.435zM9.517 4.399l0.524-0.272 1.323 2.553-0.524 0.272-1.323-2.553z"></path>
<path d="M13.060 4.122c-0.106-0.274-0.385-0.56-0.87-0.415-0.555 0.166-0.65 0.712-0.495 1.229s0.529 0.922 1.089 0.754c0.485-0.145 0.563-0.533 0.492-0.846l0.566-0.17c0.147 0.649-0.202 1.265-0.919 1.48-0.825 0.247-1.536-0.186-1.794-1.048s0.097-1.615 0.917-1.861c0.717-0.215 1.323 0.103 1.58 0.707l-0.566 0.17z"></path>
<path d="M18.518 2.329c-0.377-0.070-0.527-0.051-0.572 0.272l-0.044 0.312 0.524 0.073-0.067 0.479-0.524-0.073-0.331 2.368-0.591-0.082 0.331-2.368-0.407-0.057 0.067-0.479 0.407 0.057 0.051-0.362c0.084-0.602 0.37-0.778 0.838-0.712 0.145 0.020 0.271 0.055 0.385 0.093l-0.067 0.479z"></path>
<path d="M19.227 6.287c-0.849-0.3-1.155-1.071-0.856-1.915s1.021-1.25 1.87-0.95c0.849 0.3 1.155 1.071 0.856 1.915s-1.021 1.25-1.87 0.95zM19.388 5.83c0.53 0.188 0.954-0.134 1.152-0.691 0.199-0.562 0.070-1.074-0.461-1.261s-0.953 0.128-1.152 0.691c-0.197 0.557-0.070 1.074 0.461 1.261z"></path>
<path d="M21.506 7.43c-0.745-0.505-0.846-1.329-0.344-2.069s1.304-0.951 2.049-0.446c0.745 0.505 0.846 1.329 0.344 2.069s-1.304 0.951-2.049 0.446zM21.777 7.029c0.466 0.316 0.957 0.112 1.289-0.377 0.335-0.494 0.339-1.021-0.127-1.337s-0.954-0.117-1.289 0.377c-0.332 0.489-0.339 1.021 0.127 1.337z"></path>
<path d="M27.085 7.066l0.381 0.451-3.072 2.597-0.381-0.451 0.253-0.214-0.007-0.009c-0.248 0.011-0.598-0.062-0.885-0.402-0.476-0.563-0.39-1.35 0.332-1.96s1.512-0.564 1.988-0.001c0.287 0.339 0.31 0.689 0.24 0.946l0.007 0.009 1.143-0.966zM23.809 8.804c0.312 0.37 0.81 0.339 1.296-0.071 0.49-0.414 0.598-0.896 0.286-1.266-0.334-0.395-0.873-0.301-1.303 0.063s-0.613 0.879-0.278 1.274z"></path>
<path d="M17.582 14.418c-3.165 0.703-3.903 2.873-4.635 4.691l0.665 0.232 0.334-0.809c0.169 0.060 0.345 0.105 0.471 0.105 3.868 0 4.923-5.978 4.923-5.978-0.352 0.703-2.813 0.791-4.571 1.143s-2.462 1.846-2.462 2.549c0 0.703 0.615 1.319 0.615 1.319 1.143-3.253 4.659-3.253 4.659-3.253z"></path>
</symbol>
</defs>
</svg>
